# xmcd
#
# Track frame offsets: 
#        150
#        10709
#        22930
#        36634
#        45975
#        60094
#        71481
#        83524
#        94695
#        104693
#        115031
#        125624
#        139386
#        151400
#        163265
#        173475
#        190114
#        211078
#
# Disc length: 3000 seconds
#
# Revision: 10
# Processed by: cddbd v1.5.2PL0 Copyright (c) Steve Scherf et al.
# Submitted via: ExactAudioCopy v1.0b3
#
DISCID=e10bb612
DTITLE=JOHNNY WINTER - Livin' In The Blues
DYEAR=1998
DGENRE=Blues, Rock 
TTITLE0=That's What Love Does
TTITLE1=Leave My Wife Alone
TTITLE2=Five After Four AM
TTITLE3=Road Runner
TTITLE4=Ease My Pain
TTITLE5=The Guy You Left Behind
TTITLE6=Kiss Tomorrow Goodbye
TTITLE7=I Can't Believe You Want To Leave
TTITLE8=By The Light Of The Silvery Moon
TTITLE9=She So Many Tears
TTITLE10=Creepy
TTITLE11=Harlem Nocturne
TTITLE12=Livin' In The Blues
TTITLE13=The World Turns All Around Her
TTITLE14=38-32-20 Blues
TTITLE15=Kind Hearted Woman
TTITLE16=Going Down Slow
TTITLE17=Low Down Pal Of Mine
EXTD=YEAR: 2001
EXTT0=
EXTT1=
EXTT2=
EXTT3=
EXTT4=
EXTT5=
EXTT6=
EXTT7=
EXTT8=
EXTT9=
EXTT10=
EXTT11=
EXTT12=
EXTT13=
EXTT14=
EXTT15=
EXTT16=
EXTT17=
PLAYORDER=
